<svg xmlns="http://www.w3.org/2000/svg" viewBox="0 0 752 256"> <g fill="none" fillRule="evenodd"> <style> path { fill: black; } @media (prefers-color-scheme: dark) { path { fill: white; } } </style> <path opacity="1.000000" stroke="none" d=" M227.730728,165.467102 C214.038193,202.993515 181.656387,224.699463 141.990784,222.167007 C102.741188,219.661102 72.395149,188.766602 66.530724,154.161682 C59.582504,113.161522 80.853729,78.755440 113.042336,63.342247 C161.957993,39.919479 221.960190,71.035439 230.433762,124.202850 C232.640717,138.050278 232.024460,151.671005 227.730728,165.467102 M166.466934,212.919983 C205.917175,203.122742 231.227707,164.778320 223.297470,124.707268 C215.242935,84.008224 179.066650,58.070145 137.897400,63.692520 C94.425034,69.629425 66.938492,110.541161 73.375687,150.416473 C76.556099,170.117538 85.866035,186.450455 101.639168,198.787735 C120.655457,213.661697 142.187302,217.914597 166.466934,212.919983 z" /> <path opacity="1.000000" stroke="none" d=" M330.113586,160.310715 C327.511078,159.971207 324.289795,161.267532 323.974915,157.904083 C323.693451,154.897797 321.975769,151.133514 325.995026,149.005630 C327.794006,148.053207 327.975494,146.472900 327.996826,144.776077 C328.099518,136.619980 328.236328,128.463623 328.235107,120.307388 C328.234772,118.188751 327.950195,116.363129 325.431244,115.052490 C322.088440,113.313171 323.757629,109.682617 323.965179,106.926361 C324.177185,104.110153 326.895874,104.992836 328.751709,104.679100 C337.453522,103.208054 343.363708,105.985565 347.472961,114.393028 C351.390167,122.407539 356.944489,129.621887 362.565186,138.418198 C362.565186,130.663208 362.585663,124.196739 362.545074,117.730652 C362.538300,116.649414 361.847107,115.896629 360.817566,115.514214 C356.441315,113.888649 358.247803,110.270378 358.444885,107.413383 C358.684753,103.936821 361.704254,104.799614 363.883911,104.734772 C367.377258,104.630859 370.877655,104.644318 374.371796,104.735214 C376.425629,104.788643 379.086823,104.163567 379.386658,107.367622 C379.647095,110.150780 381.420898,113.573975 377.665680,115.278511 C374.923950,116.522987 375.376587,118.655243 375.369232,120.730446 C375.328400,132.218643 375.214996,143.709351 375.415344,155.194153 C375.484161,159.141052 374.054474,160.150024 370.231842,160.452698 C364.659302,160.893951 361.434998,158.888596 358.653748,154.093384 C353.577301,145.341034 347.794281,136.998520 341.208618,128.690521 C341.208618,134.695816 340.562531,140.803299 341.489014,146.662079 C341.933136,149.470505 346.024628,151.158417 345.511475,155.376312 C345.089386,158.845993 344.380157,160.611420 340.583679,160.354843 C337.269012,160.130859 333.927063,160.310318 330.113586,160.310715 z" /> <path opacity="1.000000" stroke="none" d=" M485.883179,137.361526 C483.622101,148.545090 477.422455,155.984451 466.683380,160.129456 C470.683502,163.267609 474.389252,164.175797 477.583984,160.494354 C480.761688,156.832611 482.977081,159.979645 485.352661,161.086105 C488.360138,162.486923 487.222900,164.915634 486.113770,167.050369 C483.382568,172.307053 476.709900,175.170761 470.793182,173.815247 C465.627319,172.631760 461.296448,169.055420 455.677246,168.974182 C453.246826,168.939041 453.664490,166.196304 453.778381,164.497406 C453.980164,161.487289 452.639984,160.167191 449.922119,159.036118 C438.193024,154.154953 431.455109,142.192505 432.765228,129.155869 C434.047394,116.397064 443.110687,106.486465 455.639557,104.143059 C470.688507,101.328293 485.702209,114.447777 486.268799,130.961487 C486.336945,132.948639 486.089294,134.946625 485.883179,137.361526 M454.936432,147.789200 C462.226440,149.855042 467.973297,147.574585 471.030762,140.911255 C474.072052,134.283142 473.806305,127.581718 469.614075,121.480141 C464.754791,114.407700 454.819946,114.332870 449.525726,120.936005 C444.146301,127.645393 444.511719,143.265045 454.936432,147.789200 z" /> <path opacity="1.000000" stroke="none" d=" M593.293701,144.184998 C593.287659,148.662506 593.232544,152.662262 593.271118,156.661118 C593.295471,159.175995 592.137634,160.287399 589.638489,160.281433 C577.306824,160.252014 564.975037,160.258209 552.643311,160.271271 C550.201599,160.273849 548.602844,159.117203 548.967590,156.687958 C549.349609,154.143433 546.848572,150.144119 551.801025,149.525665 C554.298950,149.213745 554.708862,147.823929 554.703552,145.774002 C554.681702,137.274963 554.706055,128.775848 554.697327,120.276764 C554.695618,118.589890 554.760437,116.796036 552.485474,116.427551 C546.483704,115.455421 549.092834,110.824165 549.087280,107.697823 C549.080688,103.967346 552.440674,104.745796 554.796753,104.732819 C565.961975,104.671288 577.128662,104.790375 588.292542,104.653961 C591.847351,104.610535 593.626404,105.723801 593.339661,109.506798 C593.163940,111.826210 593.325806,114.170464 593.317932,116.503494 C593.292908,123.953987 589.968140,126.314835 582.798340,124.176498 C580.247192,123.415649 580.765686,121.454803 580.682312,119.737946 C580.590332,117.844666 580.088013,116.242645 577.906494,116.444252 C574.730896,116.737717 570.871338,114.742035 568.556641,117.846283 C567.171204,119.704239 567.206543,122.832878 568.396973,125.037048 C569.360779,126.821709 571.781189,126.099373 573.515076,125.982849 C578.745728,125.631325 578.247375,129.090912 578.408630,132.543106 C578.582520,136.267181 577.513000,138.302338 573.427185,137.897705 C569.771362,137.535645 567.463684,138.214142 567.730408,142.965057 C567.975159,147.323944 569.090454,149.235336 573.818970,149.146759 C578.243042,149.063858 581.474487,148.737244 580.740417,143.101227 C580.449036,140.863693 581.749390,139.339661 583.962219,139.814896 C587.260986,140.523376 592.559998,136.813980 593.293701,144.184998 z" /> <path opacity="1.000000" stroke="none" d=" M403.351959,143.986465 C402.849274,148.422791 405.146637,149.320953 408.494568,149.027039 C411.702026,148.745453 415.727936,150.422882 416.295898,144.739365 C416.824005,139.454834 417.900818,139.244217 425.178864,139.665497 C429.560822,139.919128 429.159637,142.809937 429.178406,145.633728 C429.202759,149.297043 429.141022,152.960922 429.113800,156.624542 C429.095612,159.072281 427.892273,160.271057 425.411774,160.267792 C413.087372,160.251541 400.762909,160.250534 388.438568,160.272308 C386.007202,160.276611 384.358429,159.236313 384.823547,156.735962 C385.293884,154.207520 382.553955,150.145477 387.436005,149.503159 C390.175934,149.142685 390.679840,147.875214 390.667511,145.579987 C390.622681,137.252716 390.662048,128.925034 390.647064,120.597542 C390.644073,118.940842 390.836029,116.902000 388.641602,116.582611 C382.269348,115.655167 384.903320,110.809212 384.980377,107.598747 C385.078308,103.518471 388.838715,104.800346 391.224701,104.772171 C402.049011,104.644379 412.878296,104.851822 423.700104,104.643166 C427.857025,104.563004 429.459045,106.095566 429.200378,110.175941 C428.990021,113.493980 429.104736,116.835609 429.147888,120.165840 C429.186066,123.112366 427.795105,124.412758 424.866638,124.287880 C420.655731,124.108322 415.177368,125.940628 416.063110,118.239761 C416.229736,116.791000 414.863586,116.402031 413.607697,116.378891 C411.609772,116.342079 409.606384,116.436897 407.613556,116.326683 C404.310791,116.144005 403.275208,117.766937 403.297913,120.882874 C403.319824,123.886436 403.601593,125.927368 407.454193,126.108421 C414.690918,126.448494 414.522858,126.657745 414.362427,133.586304 C414.282990,137.018112 412.743561,138.067810 409.719147,137.627594 C405.067657,136.950531 402.592957,138.488205 403.351959,143.986465 z" /> <path opacity="1.000000" stroke="none" d=" M666.022339,160.305115 C664.192688,160.301422 662.859619,160.301254 661.526489,160.294449 C654.968750,160.261002 653.040588,157.717285 654.734558,151.430069 C654.966736,150.568604 655.214783,149.654266 656.123169,149.591812 C661.215820,149.241638 660.455994,145.340607 660.510376,142.187317 C660.625427,135.526825 660.351807,128.859238 660.486938,122.199631 C660.564148,118.391525 659.747986,115.666382 655.420166,115.845978 C655.161011,115.282623 654.938660,114.994011 654.897461,114.681480 C653.634949,105.114594 653.985962,104.702873 663.399475,104.699219 C673.564392,104.695267 683.732971,104.854515 693.892578,104.621826 C698.090637,104.525673 699.081909,106.320404 698.750427,110.037376 C698.440430,113.514000 698.371460,117.025162 698.425049,120.517624 C698.482422,124.247017 696.044250,124.555435 693.415588,124.230873 C690.691895,123.894569 686.688477,126.135406 686.103210,120.831047 C685.616272,116.416992 682.688843,115.151794 676.146484,116.403328 C671.351868,117.320503 673.510986,121.136581 673.557068,123.682076 C673.608337,126.512878 676.392151,126.108002 678.247803,125.968483 C683.295593,125.588951 684.302246,128.123367 684.329956,132.631210 C684.360046,137.514130 681.783508,138.316025 678.032898,137.835190 C674.134033,137.335327 673.080627,139.000778 673.245178,142.632385 C673.402771,146.113846 672.936218,149.629578 678.180969,149.070862 C679.334656,148.947952 680.515442,148.987656 681.677795,149.054703 C684.925110,149.241989 686.645874,148.252472 686.335388,144.496262 C685.788940,137.884430 690.915710,140.077759 694.310974,139.716232 C698.428894,139.277771 698.932373,141.867844 698.781860,145.074112 C698.617981,148.566086 698.335266,152.075638 698.523560,155.554810 C698.729980,159.368240 697.089417,160.428299 693.513062,160.359177 C684.517944,160.185318 675.517273,160.304092 666.022339,160.305115 z" /> <path opacity="1.000000" stroke="none" d=" M317.313293,128.351807 C317.925812,136.668503 316.766235,144.116501 311.735291,150.484406 C305.104889,158.876785 296.496826,162.672714 285.848907,160.541031 C274.360199,158.240997 267.378082,150.803070 264.895111,139.659744 C262.342133,128.202530 264.838501,117.700325 274.028442,109.757980 C287.198273,98.376045 307.991699,103.564034 314.891449,119.803780 C315.984863,122.377365 316.508606,125.192993 317.313293,128.351807 M292.897278,148.531677 C306.302704,145.611908 306.751709,126.134743 299.056763,119.596527 C295.117279,116.249237 290.857758,115.215584 286.105377,117.175102 C279.672485,119.827545 275.917297,128.382172 277.541748,136.214645 C279.162689,144.029892 284.346832,148.442184 292.897278,148.531677 z" /> <path opacity="1.000000" stroke="none" d=" M644.299805,140.810898 C640.955078,162.344803 620.043030,164.282791 610.087769,156.653427 C602.685059,150.980209 601.422729,142.822983 601.098145,134.339081 C600.926270,129.846863 601.119385,125.341797 601.029602,120.844887 C600.981628,118.444992 601.211182,116.368248 597.910950,114.961319 C594.614685,113.556084 596.912415,109.586151 596.757629,106.791023 C596.623840,104.375557 598.944275,104.750122 600.526367,104.730965 C605.357544,104.672470 610.190125,104.682785 615.021667,104.726982 C616.852600,104.743736 619.155090,104.670799 619.087708,107.233261 C619.016357,109.949966 621.069153,113.640533 617.237183,115.099533 C614.787720,116.032143 614.296326,117.334656 614.310547,119.514816 C614.352844,126.012665 614.219788,132.513580 614.372375,139.008209 C614.513184,145.005585 617.872681,148.568497 623.041870,148.599289 C628.319702,148.630722 631.546753,145.267807 631.709229,139.154068 C631.881775,132.660416 631.807800,126.159470 631.786804,119.661880 C631.781555,118.047707 632.117798,115.838608 629.927673,115.569847 C624.484253,114.901878 626.188232,110.956650 626.315002,107.948494 C626.488281,103.836403 629.849243,104.796570 632.348816,104.728584 C636.178223,104.624428 640.013611,104.641914 643.844238,104.718628 C645.750305,104.756790 648.385620,104.128876 648.818359,106.779594 C649.273682,109.568565 650.577454,113.142250 647.491211,115.020905 C645.101135,116.475800 644.978943,118.235451 644.916016,120.410339 C644.723511,127.065483 644.519104,133.720276 644.299805,140.810898 z" /> <path opacity="1.000000" stroke="none" d=" M514.223511,147.862411 C521.527039,149.412262 524.962097,147.459900 526.115112,140.745972 C527.389099,133.327408 526.486023,125.791878 526.583496,118.308517 C526.603149,116.797417 525.796570,115.715714 524.266663,115.504730 C518.481201,114.706848 520.849487,110.277260 520.909790,107.309761 C520.981812,103.762703 524.252380,104.849922 526.361084,104.763260 C530.352539,104.599205 534.356934,104.644257 538.352661,104.738853 C540.071533,104.779541 542.567261,104.117043 542.971130,106.509827 C543.445129,109.318657 544.804993,113.098793 542.027100,114.859993 C539.034058,116.757698 539.299500,119.049950 539.191772,121.647377 C538.923157,128.120819 539.627441,134.597656 538.539001,141.079971 C536.428101,153.652145 527.790405,161.399048 516.201172,160.719818 C504.613251,160.040680 496.349731,151.347641 495.780273,138.885696 C495.499176,132.734344 495.708771,126.560669 495.692596,120.397110 C495.686462,118.066238 495.870087,116.075233 492.683258,115.027412 C489.019287,113.822723 491.034698,110.169441 490.896637,107.591736 C490.767212,105.175095 492.738800,104.739487 494.723877,104.735542 C499.554779,104.725945 504.385803,104.708908 509.216492,104.741600 C511.088287,104.754265 513.238464,104.813438 513.170044,107.387192 C513.100159,110.019432 514.863708,113.598404 511.485260,114.973206 C508.597565,116.148293 508.236908,117.881584 508.350555,120.346733 C508.671997,127.317390 507.681793,134.321609 509.065399,141.274139 C509.664307,144.283417 510.926422,146.573914 514.223511,147.862411 z" /> <path opacity="1.000000" stroke="none" d=" M175.760529,132.780640 C175.377975,136.222229 177.165482,136.977005 179.696167,136.660294 C184.291901,136.085114 185.396896,138.385422 185.259018,142.514130 C185.144882,145.932587 183.807098,149.999542 188.548233,151.922897 C187.180374,155.241287 185.641754,158.055496 182.836899,160.390579 C180.355850,158.053452 179.082245,155.220154 177.188675,152.240524 C181.238388,150.694290 180.799057,147.452087 180.700500,144.332809 C180.655716,142.915573 180.424850,141.603058 178.653336,141.466705 C176.924667,141.333649 176.259216,142.400879 176.245377,143.929672 C176.200699,148.861038 173.093521,149.995789 168.938614,149.992264 C155.633514,149.980972 142.327850,150.079697 129.023499,149.984604 C123.354912,149.944092 121.930824,148.369751 121.762451,142.866943 C121.298241,127.696198 121.297440,127.759758 136.660828,127.954582 C147.469376,128.091644 158.280731,127.993591 169.090302,128.072266 C172.156921,128.094589 175.283340,128.274811 175.760529,132.780640 M145.020004,132.307236 C143.998047,132.419983 143.081604,132.695221 142.635941,133.762817 C139.656204,140.900955 142.841080,145.906235 150.279053,145.767578 C151.105972,145.752167 151.932755,145.727783 152.759506,145.704742 C154.519333,145.655685 155.332382,144.775070 155.672119,143.006439 C157.382568,134.102158 155.863556,132.192810 146.889313,132.246124 C146.558456,132.248077 146.227615,132.256927 145.020004,132.307236 M159.278915,140.354675 C159.563782,142.188690 158.526962,144.460739 161.008408,145.566467 C167.311630,148.375183 172.277710,145.079575 172.022629,138.123917 C171.949738,136.135849 172.789261,133.642822 170.122223,132.477692 C164.021942,129.812698 159.323959,132.843842 159.278915,140.354675 M129.824478,145.763901 C132.639694,145.308884 136.507996,147.272125 138.061249,144.208267 C139.661469,141.051743 139.448593,136.907578 138.118759,133.576263 C137.127563,131.093231 133.956268,132.366211 131.766953,132.324356 C129.666779,132.284210 126.245430,131.382996 126.458977,134.879105 C126.681229,138.517929 123.563545,143.217621 129.824478,145.763901 z" /> <path opacity="1.000000" stroke="none" d=" M133.974701,103.406296 C134.195648,105.829681 134.253647,107.821434 134.318588,109.812965 C134.413773,112.731369 133.330734,116.226326 138.204880,116.375679 C137.183395,120.387573 134.764343,122.679054 133.025131,125.674393 C129.293182,123.702484 128.681870,119.997925 126.074982,117.225647 C129.388596,115.476067 130.620667,113.087082 129.890717,109.818947 C129.615936,108.588638 129.245483,107.563782 127.801071,107.442001 C126.426186,107.326080 125.512085,107.955292 125.350418,109.327690 C124.689827,114.935211 120.852005,115.391045 116.283806,115.369377 C104.867508,115.315216 102.351845,117.101540 103.152443,101.015968 C103.433754,95.363815 105.164566,93.841019 110.981834,93.750778 C113.640518,93.709534 116.301689,93.716202 118.959740,93.781784 C121.072159,93.833916 123.530281,94.578255 123.905769,96.499077 C124.871498,101.439117 128.011337,102.221489 132.160431,102.015907 C132.694763,101.989426 133.262573,102.638451 133.974701,103.406296 M120.727585,105.374352 C120.238388,102.971657 122.134293,99.785538 118.831413,98.311440 C112.017235,95.270226 107.334793,98.572708 107.228149,106.035797 C107.173950,109.828133 107.992058,111.842209 112.400276,111.780685 C120.263206,111.670929 120.373596,111.826744 120.727585,105.374352 z" /> <path opacity="1.000000" stroke="none" d=" M179.283615,162.686005 C180.076859,162.679199 180.408295,162.674881 180.739746,162.673874 C193.186050,162.636246 197.360733,168.573227 193.265289,180.486435 C193.158020,180.798431 193.133041,181.181229 192.932816,181.412521 C188.392883,186.657242 182.390305,183.856293 177.045242,184.001831 C173.575165,184.096313 172.153473,180.952576 171.923080,177.713043 C171.735352,175.073593 171.762604,172.411682 171.828110,169.763031 C171.939499,165.258469 173.952393,162.537201 179.283615,162.686005 M176.702301,178.733368 C180.570648,181.026367 185.059647,181.048981 188.506149,179.131668 C191.342621,177.553726 189.489517,173.306656 189.802292,170.254074 C189.835632,169.928665 189.770386,169.591522 189.737228,169.261200 C189.564026,167.534958 188.615768,166.711807 186.893356,166.360870 C178.202423,164.590134 176.032944,166.291214 176.187515,174.945084 C176.205261,175.938889 176.317047,176.931030 176.702301,178.733368 z" /> </g> </svg>